<svg width="36" height="36" viewBox="0 0 36 36" fill="none" xmlns="http://www.w3.org/2000/svg">
<path d="M3 36C2.2 36 1.5 35.7 0.9 35.1C0.3 34.5 0 33.8 0 33V3C0 2.2 0.3 1.5 0.9 0.9C1.5 0.3 2.2 0 3 0H33C33.8 0 34.5 0.3 35.1 0.9C35.7 1.5 36 2.2 36 3V33C36 33.8 35.7 34.5 35.1 35.1C34.5 35.7 33.8 36 33 36H3ZM3 33H33V3H3V33ZM5.8 28.15H30.25L22.9 18.35L16.3 26.9L11.65 20.55L5.8 28.15ZM11.0059 13.5C11.702 13.5 12.2917 13.2564 12.775 12.7691C13.2583 12.2819 13.5 11.6902 13.5 10.9941C13.5 10.298 13.2564 9.70833 12.7691 9.225C12.2819 8.74167 11.6902 8.5 10.9941 8.5C10.298 8.5 9.70833 8.74363 9.225 9.2309C8.74167 9.71813 8.5 10.3098 8.5 11.0059C8.5 11.702 8.74363 12.2917 9.2309 12.775C9.71813 13.2583 10.3098 13.5 11.0059 13.5Z" fill="#404040" fill-opacity="0.666667"/>
</svg>
